/* XPM */
static char *result[] = {
/* columns rows colors chars-per-pixel */
"64 64 171 2 ",
"   c #010101",
".  c gray3",
"X  c gray9",
"o  c #270D00",
"O  c #2D0D00",
"+  c #310600",
"@  c #3E0000",
"#  c #2C1503",
"$  c #331504",
"%  c #3B1502",
"&  c #331906",
"*  c #3A1806",
"=  c #3E3E3E",
"-  c #430000",
";  c #4C0002",
":  c #450B08",
">  c #4D0A0F",
",  c #510409",
"<  c #53090E",
"1  c #431605",
"2  c #4A180A",
"3  c #571807",
"4  c #4E0C10",
"5  c #510D12",
"6  c #580D12",
"7  c #660004",
"8  c #6B0002",
"9  c #6E060D",
"0  c #710005",
"q  c #720209",
"w  c #78080D",
"e  c #681C00",
"r  c #640F14",
"t  c #6E0D13",
"y  c #740C13",
"u  c #7C0D15",
"i  c #6C1111",
"p  c #711113",
"a  c #721218",
"s  c #7A1118",
"d  c #4C2407",
"f  c #45220A",
"g  c #532409",
"h  c #5C220A",
"j  c #4B2711",
"k  c #6D2A03",
"l  c #63220C",
"z  c #6E230E",
"x  c #702700",
"c  c #722B02",
"v  c #6F310E",
"b  c #77330B",
"n  c #783813",
"m  c #7A3913",
"M  c #713337",
"N  c #7F421E",
"B  c #67493B",
"V  c #6B4E3D",
"C  c #764539",
"Z  c #793F42",
"A  c #7A4144",
"S  c #6E5543",
"D  c #735544",
"F  c #775D4D",
"G  c #636261",
"H  c #8A070F",
"J  c #860D15",
"K  c #8A0E16",
"L  c #870F18",
"P  c #910B14",
"I  c #9B0C16",
"U  c #900F18",
"Y  c #8D1517",
"T  c #8E1416",
"R  c #961617",
"E  c #931019",
"W  c #9E101A",
"Q  c #AB0C15",
"!  c #BB0F1B",
"~  c #A3111B",
"^  c #AE121D",
"/  c #B3121D",
"(  c #BA131F",
")  c #BD1F1D",
"_  c #BF1520",
"`  c #8D2C33",
"'  c #8F353B",
"]  c #C20F1B",
"[  c #CE101D",
"{  c #FD0B1B",
"}  c #C21420",
"|  c #CC1622",
" . c #C81E20",
".. c #D71724",
"X. c #DC1825",
"o. c #E41826",
"O. c #EB1927",
"+. c #EE1A28",
"@. c #FD1424",
"#. c #FE1827",
"$. c #F41A29",
"%. c #FE1B2B",
"&. c #FF2232",
"*. c #FE2C3A",
"=. c #81431E",
"-. c #87502F",
";. c #8B5535",
":. c #915C3D",
">. c #A13C43",
",. c #B93A42",
"<. c #E13C47",
"1. c #FE3946",
"2. c #FE3C49",
"3. c #8C474C",
"4. c #93494E",
"5. c #944D50",
"6. c #845457",
"7. c #88575A",
"8. c #9A5156",
"9. c #AF4249",
"0. c #B54D54",
"q. c #A05B5F",
"w. c #956345",
"e. c #96664A",
"r. c #8D6366",
"t. c #946B6E",
"y. c #9C7375",
"u. c #9F7779",
"i. c #987D78",
"p. c #A36B6F",
"a. c #AB6F73",
"s. c #A07B7D",
"d. c #B1787C",
"f. c #FE525E",
"g. c #FE5C66",
"h. c #FE626D",
"j. c #FE6B75",
"k. c #A47F82",
"l. c #AE7F82",
"z. c #8D8D8C",
"x. c #AC8E8E",
"c. c #BB8E91",
"v. c #B19294",
"b. c #BF9396",
"n. c #B29799",
"m. c #B4A09D",
"M. c #B1B1B0",
"N. c #C0979A",
"B. c #FE828A",
"V. c #FE949B",
"C. c #FE989F",
"Z. c #FE9CA3",
"A. c #C4AFAF",
"S. c #C4AFB0",
"D. c #CFAFB1",
"F. c #C7B2B3",
"G. c #C0B8B4",
"H. c #D2B3B5",
"J. c #D3B8BA",
"K. c #FEA3A9",
"L. c #FEA8AE",
"P. c #C4C0BB",
"I. c #80FFFF",
"U. c #8BFEFE",
"Y. c #94FFFF",
"T. c #A8FCFC",
"R. c #B0FBFB",
"E. c #CFC2C3",
"W. c #DDCBCD",
"Q. c #E0D0D1",
"!. c #E3DADB",
/* pixels */
"I.I.I.I.I.I.I.I.I.I.I.I.I.I.I.I.I.I.I.I.I.I.I.I.I.I.I.I.I.I.I.I.I.I.I.I.I.I.I.I.I.I.I.I.I.I.I.I.I.I.I.I.I.I.I.I.I.I.I.I.I.I.I.I.",
"I.I.I.I.I.I.I.I.I.I.I.I.I.I.I.I.I.I.I.I.I.I.I.I.I.I.I.I.I.I.I.I.I.I.I.I.I.I.I.I.I.I.I.I.I.I.I.I.I.I.I.I.I.I.I.I.I.I.I.I.I.I.I.I.",
"I.I.I.I.I.I.I.I.I.I.I.I.I.I.I.I.I.I.I.I.I.I.I.I.I.I.I.I.I.I.I.I.I.I.I.I.I.I.I.I.I.I.I.I.I.I.I.I.I.I.I.I.I.I.I.I.I.I.I.I.I.I.I.I.",
"I.I.I.I.I.I.I.I.I.I.I.I.I.I.I.I.I.I.I.I.I.I.I.I.I.I.I.I.I.I.I.I.I.I.I.I.I.I.I.I.I.I.I.I.I.I.I.I.I.I.I.I.I.I.I.I.I.I.I.I.I.I.I.I.",
"I.I.I.I.I.I.I.I.I.I.I.I.I.I.I.I.I.I.I.I.I.I.I.I.I.I.I.I.I.I.I.I.I.I.I.c e :.I.I.I.I.I.I.I.I.I.I.I.I.I.I.I.I.I.I.I.I.I.I.I.I.I.I.",
"I.I.I.I.I.I.I.I.I.I.I.I.I.I.I.I.I.I.I.I.I.I.I.I.I.I.I.I.I.I.I.I.I.I.I.m c e.I.I.I.I.I.I.I.I.I.I.I.I.I.I.I.I.I.I.I.I.I.I.I.I.I.I.",
"I.I.I.I.I.I.I.I.I.I.I.I.I.I.I.I.I.I.I.I.I.I.I.I.I.I.I.I.I.I.I.I.I.I.I.m x w.I.I.I.I.I.I.I.I.I.I.I.I.I.I.I.I.I.I.I.I.I.I.I.I.I.I.",
"I.I.I.I.I.I.I.I.I.I.I.I.I.I.I.I.I.I.I.I.I.I.I.I.I.I.I.I.I.M.= z.e.:.;.g 1 D I.I.I.I.I.I.I.I.I.I.I.I.I.I.I.I.I.I.I.I.I.I.I.I.I.I.",
"I.I.I.I.I.I.I.I.I.I.I.I.I.I.I.I.I.I.I.I.I.I.I.I.I.I.I.I.I.X   . m x k f % S I.I.I.I.I.I.I.I.I.I.I.I.I.I.I.I.I.I.I.I.I.I.I.I.I.I.",
"I.I.I.I.I.I.I.I.I.I.I.I.I.I.I.I.I.I.I.I.I.I.I.I.I.I.I.I.I.      =.b v % + B I.I.I.I.I.I.I.I.I.I.I.I.I.I.I.I.I.I.I.I.I.I.I.I.I.I.",
"I.I.I.I.I.I.I.I.I.I.I.I.I.I.I.I.I.I.I.I.I.I.I.I.I.I.I.I.I.      =.c n D V i.I.I.I.I.I.I.I.I.I.I.I.I.I.I.I.I.I.I.I.I.I.I.I.I.I.I.",
"I.I.I.I.I.I.I.I.I.I.I.I.I.I.I.I.I.I.I.I.I.I.I.I.I.I.I.I.I.      =.c ;.I.I.I.I.I.I.I.I.I.I.I.I.I.I.I.I.I.I.I.I.I.I.I.I.I.I.I.I.I.",
"I.I.I.I.I.I.I.I.I.I.I.I.I.I.I.I.I.I.I.I.I.I.I.I.I.I.I.I.I..     N k -.I.I.I.I.I.I.I.I.I.I.I.I.I.I.I.I.I.I.I.I.I.I.I.I.I.I.I.I.I.",
"I.I.I.I.I.I.I.I.I.I.I.I.I.I.I.I.I.I.I.I.I.I.I.I.I.I.I.I.I.z.  G =.c ;.I.I.I.I.I.I.I.I.I.I.I.I.I.I.I.I.I.I.I.I.I.I.I.I.I.I.I.I.I.",
"I.I.I.I.I.I.I.I.I.I.I.I.I.I.I.I.I.I.I.I.I.I.I.I.I.I.d.4.8.8.8.5.d 1 j F D i.I.I.I.I.I.I.I.I.I.I.I.I.I.I.I.I.I.I.I.I.I.I.I.I.I.I.",
"I.I.I.I.I.I.I.I.I.I.I.I.I.I.I.I.I.I.I.I.I.I.I.I.I.I.' 8 q 0 q 8 $ o # % + B I.I.I.I.I.I.I.I.I.I.I.I.I.I.I.I.I.I.I.I.I.I.I.I.I.I.",
"I.I.I.I.I.I.I.I.I.I.I.I.I.I.I.I.I.I.I.I.I.I.I.I.I.Y.4.9 a u u a $ # & f % S I.I.I.I.I.I.I.I.I.I.I.I.I.I.I.I.I.I.I.I.I.I.I.I.I.I.",
"I.I.I.I.I.I.I.I.I.I.I.I.I.I.I.I.I.I.I.I.I.I.W.W.W.Q.>.H E p i i % & * 3 3 C I.I.I.I.I.I.I.I.I.I.I.I.I.I.I.I.I.I.I.I.I.I.I.I.I.I.",
"I.I.I.I.I.I.I.I.I.I.I.I.I.I.I.I.I.I.I.I.d.8 u w y q X.%.%.z d g h g l / / I , , , < - u.I.I.I.I.I.I.I.I.I.I.I.I.I.I.I.I.I.I.I.I.",
"I.I.I.I.I.I.I.I.I.I.I.I.I.I.I.I.I.I.I.I.d.0 u y u p X.%.%.z d h g d l / ( W < < < 6 - y.I.I.I.I.I.I.I.I.I.I.I.I.I.I.I.I.I.I.I.I.",
"I.I.I.I.I.I.I.I.I.I.I.I.I.I.I.I.I.I.I.I.d.7 a t t r X.%.$.l f d g d h ^ / I : > < 4 - u.I.I.I.I.I.I.I.I.I.I.I.I.I.I.I.I.I.I.I.I.",
"I.I.I.I.I.I.I.I.I.I.I.I.I.I.I.I.I.J.q.p.,.[ | | | | $.#.%. .) ) R Y R X.O.| U U U E K ' t.7.I.I.I.I.I.I.I.I.I.I.I.I.I.I.I.I.I.I.",
"I.I.I.I.I.I.I.I.I.I.I.I.I.I.I.I.I.c.7 7 ( &.$.%.&.%.%.%.%.%.%.%.} ( | %.%.+./ ( ( ( } J - @ x.I.I.I.I.I.I.I.I.I.I.I.I.I.I.I.I.I.",
"I.I.I.I.I.I.I.I.I.I.I.I.I.I.I.I.I.N.q a ] %.$.%.#.#.#.#.#.%.%.$./ ^ ) $.%.O.^ ^ / / ( L 5 ; v.I.I.I.I.I.I.I.I.I.I.I.I.I.I.I.I.I.",
"I.I.I.I.I.I.I.I.I.I.I.I.I.I.I.I.I.N.0 t _ %.%.&.*.*.*.*.*.%.%.$.} ( } %.%.+.( ( / / ( L 5 ; v.I.I.I.I.I.I.I.I.I.I.I.I.I.I.I.I.I.",
"I.I.I.I.I.I.I.I.I.I.I.I.I.I.I.I.I.N.8 y _ %.@.j.Z.V.V.V.V.*.#.%.%.%.%.%.%.%.%.%.o.^ ( J > ; v.I.I.I.I.I.I.I.I.I.I.I.I.I.I.I.I.I.",
"I.I.I.I.I.I.I.I.I.I.I.I.I.I.I.I.I.b.0 y _ &.#.j.K.V.V.V.V.*.#.%.%.%.%.%.%.%.%.%.o.^ _ J > ; v.I.I.I.I.I.I.I.I.I.I.I.I.I.I.I.I.I.",
"I.I.I.I.I.I.I.I.I.I.I.I.I.I.I.I.I.N.7 r ! @.{ h.Z.V.C.Z.K.*.#.%.#.%.%.%.%.%.%.%.o.^ ( J > - n.I.I.I.I.I.I.I.I.I.I.I.I.I.I.I.I.I.",
"I.I.I.I.I.I.I.I.I.I.I.I.I.I.I.a.l.0.] ( <.h.g.B.C.V.j.f.f.&.#.%.%.%.%.%.%.%.%.%.o.^ ( ~ J J 4.s.t.I.I.I.I.I.I.I.I.I.I.I.I.I.I.I.",
"I.I.I.I.I.I.I.I.I.I.I.I.I.I.D.8 7 Q %.@.h.L.Z.Z.V.Z.*.{ @.%.%.%.%.%.#.%.#.%.%.%.o.^ / / ( } w - @ M.I.I.I.I.I.I.I.I.I.I.I.I.I.I.",
"I.I.I.I.I.I.I.I.I.I.I.I.I.I.H.q a ^ &.@.g.Z.V.V.V.C.2.#.&.%.%.%.%.%.%.%.%.%.%.%.o.^ / / / / u 5 , F.I.I.I.I.I.I.I.I.I.I.I.I.I.I.",
"I.I.I.I.I.I.I.I.I.I.I.I.I.I.H.q t ^ %.@.g.Z.V.V.V.Z.1.@.%.#.%.%.%.%.#.%.%.%.%.%.o./ / / / ( u < ; F.I.I.I.I.I.I.I.I.I.I.I.I.I.I.",
"I.I.I.I.I.I.I.I.I.I.I.I.I.I.H.q a / %.@.g.Z.V.V.V.C.2.@.%.%.%.%.%.%.#.%.%.%.%.%.o./ _ / / ( u > ; F.I.I.I.I.I.I.I.I.I.I.I.I.I.I.",
"I.I.I.I.I.I.I.I.I.I.I.I.I.I.H.q t ^ %.{ g.C.V.V.V.C.1.@.%.#.%.%.%.#.%.%.%.%.%.%.o.^ ^ / ^ ( u > ; F.I.I.I.I.I.I.I.I.I.I.I.I.I.I.",
"I.I.I.I.I.I.I.I.I.I.I.I.I.I.H.q t ^ %.@.h.L.C.K.K.K.2.@.&.#.%.%.%.%.#.%.%.%.%.%.o.^ / / / ( u > ; F.I.I.I.I.I.I.I.I.I.I.I.I.I.I.",
"I.I.I.I.I.I.I.I.I.I.I.I.I.I.H.q a ^ %.{ f.h.g.h.g.h.*.#.%.%.%.#.%.%.%.%.%.%.%.%.o.^ / / / ( u > ; F.I.I.I.I.I.I.I.I.I.I.I.I.I.I.",
"I.I.I.I.I.I.I.I.I.I.I.I.I.I.H.q t ^ %.%.#.@.@.@.@.@.#.%.#.%.%.%.%.%.%.%.%.%.%.%.o.^ / / / ( u > ; F.I.I.I.I.I.I.I.I.I.I.I.I.I.I.",
"I.I.I.I.I.I.I.I.I.I.I.I.I.I.H.q t ^ %.$.%.%.%.%.#.%.%.%.%.%.%.%.%.%.%.%.#.%.%.%.o.^ / _ / ( u < ; F.I.I.I.I.I.I.I.I.I.I.I.I.I.I.",
"I.I.I.I.I.I.I.I.I.I.I.I.I.I.H.q a ^ %.%.%.%.#.%.%.%.%.%.%.%.%.%.%.%.%.%.%.%.%.%.o.^ / / / ( u > ; F.I.I.I.I.I.I.I.I.I.I.I.I.I.I.",
"I.I.I.I.I.I.I.I.I.I.I.I.I.I.H.0 t ^ %.%.%.%.%.%.%.%.%.%.%.%.%.%.%.%.%.%.%.$.( ( ( / / / / ( u > ; F.I.I.I.I.I.I.I.I.I.I.I.I.I.I.",
"I.I.I.I.I.I.I.I.I.I.I.I.I.I.H.w a ^ %.%.%.%.%.%.%.%.%.%.%.%.%.#.%.#.%.%.%.+.^ ^ ^ / / / ^ ( s 5 , F.I.I.I.I.I.I.I.I.I.I.I.I.I.I.",
"I.I.I.I.I.I.I.I.I.I.I.I.I.I.D.8 7 Q &.%.%.%.%.%.%.%.%.%.#.%.%.%.%.%.%.%.%.O./ _ / / / / _ ] w - - A.I.I.I.I.I.I.I.I.I.I.I.I.I.I.",
"I.I.I.I.I.I.I.I.I.I.I.I.I.I.W.q.p.9.( _ | o.X.$.%.%.%.%.%.%.%.%.%.%.%.o.o.../ / / / / ~ L P 3.r.7.I.I.I.I.I.I.I.I.I.I.I.I.I.I.I.",
"I.I.I.I.I.I.I.I.I.I.I.I.I.I.I.I.I.n.@ : u _ ~ o.%.%.%.%.%.%.#.%.%.%.$.^ ^ / / / / / _ J > - n.I.I.I.I.I.I.I.I.I.I.I.I.I.I.I.I.I.",
"I.I.I.I.I.I.I.I.I.I.I.I.I.I.I.I.I.v.; 5 K ( ^ o.%.%.%.%.%.%.%.%.%.%.$./ _ ^ / / / / ( L < ; v.I.I.I.I.I.I.I.I.I.I.I.I.I.I.I.I.I.",
"I.I.I.I.I.I.I.I.I.I.I.I.I.I.I.I.I.v.; 4 K ( ^ o.%.%.%.%.%.%.%.%.%.%.$./ / / / / / ^ ( L > ; v.I.I.I.I.I.I.I.I.I.I.I.I.I.I.I.I.I.",
"I.I.I.I.I.I.I.I.I.I.I.I.I.I.I.I.I.v.; 4 J ( / ( } } } } ] } } } ] } } / / / / / / / / L > ; v.I.I.I.I.I.I.I.I.I.I.I.I.I.I.I.I.I.",
"I.I.I.I.I.I.I.I.I.I.I.I.I.I.I.I.I.v.; 5 J ( / / / ^ ^ / ^ / ^ / ^ ^ ^ / / / / / / / ( J 5 ; v.I.I.I.I.I.I.I.I.I.I.I.I.I.I.I.I.I.",
"I.I.I.I.I.I.I.I.I.I.I.I.I.I.I.I.I.x.@ - J ] _ ^ / ^ _ ^ / ( ( ( ( ( ( / / / / / / ( ] J - @ x.I.I.I.I.I.I.I.I.I.I.I.I.I.I.I.I.I.",
"I.I.I.I.I.I.I.I.I.I.I.I.I.I.I.I.I.S.A 6.` I E ^ _ ^ ^ / / E Y Y T Y E / / / / / ^ E I ` 6.A S.I.I.I.I.I.I.I.I.I.I.I.I.I.I.I.I.I.",
"I.I.I.I.I.I.I.I.I.I.I.I.I.I.I.I.I.I.I.I.u.- 4 U ( / / / / 1 # $ # # 1 / / / ^ ( K 4 - s.I.I.I.I.I.I.I.I.I.I.I.I.I.I.I.I.I.I.I.I.",
"I.I.I.I.I.I.I.I.I.I.I.I.I.I.I.I.I.I.I.I.u.; 5 E ( ^ / / / 2 & * * & 2 / / / / ( E 5 ; u.I.I.I.I.I.I.I.I.I.I.I.I.I.I.I.I.I.I.I.I.",
"I.I.I.I.I.I.I.I.I.I.I.I.I.I.I.I.I.I.I.I.y.- ; P _ / / ( ( : # O O o : / / / ( } P ; - y.I.I.I.I.I.I.I.I.I.I.I.I.I.I.I.I.I.I.I.I.",
"I.I.I.I.I.I.I.I.I.I.I.I.I.I.I.I.I.I.I.I.I.S.E.3.7 t t t t m.P.M.G.P.m.t t t t 7 3.E.F.I.I.I.I.I.I.I.I.I.I.I.I.I.I.I.I.I.I.I.I.I.",
"I.I.I.I.I.I.I.I.I.I.I.I.I.I.I.I.I.I.I.I.I.I.I.r.- 5 5 < > !.I.I.I.I.!.< < < 5 - r.I.I.I.I.I.I.I.I.I.I.I.I.I.I.I.I.I.I.I.I.I.I.I.",
"I.I.I.I.I.I.I.I.I.I.I.I.I.I.I.I.I.I.I.I.I.I.I.6.- , ; ; ; W.I.I.I.I.Q.; ; ; , - 6.I.I.I.I.I.I.I.I.I.I.I.I.I.I.I.I.I.I.I.I.I.I.I.",
"I.I.I.I.I.I.I.I.I.I.I.I.I.I.I.I.I.I.I.I.I.I.I.k.M A A Z A !.I.I.I.I.!.A Z A A M k.I.I.I.I.I.I.I.I.I.I.I.I.I.I.I.I.I.I.I.I.I.I.I.",
"I.I.I.I.I.I.I.I.I.I.I.I.I.I.I.I.I.I.I.I.I.I.I.I.I.I.I.I.I.I.I.I.I.I.I.I.I.I.I.I.I.I.I.I.I.I.I.I.I.I.I.I.I.I.I.I.I.I.I.I.I.I.I.I.",
"I.I.I.I.I.I.I.I.I.I.I.I.I.I.I.I.I.I.I.I.I.I.I.I.I.I.I.I.I.I.I.I.I.I.I.I.I.I.I.I.I.I.I.I.I.I.I.I.I.I.I.I.I.I.I.I.I.I.I.I.I.I.I.I.",
"I.I.I.I.I.I.I.I.I.I.I.I.I.I.I.I.I.I.I.I.I.I.I.I.I.I.I.I.I.I.I.I.I.I.I.I.I.I.I.I.I.I.I.I.I.I.I.I.I.I.I.I.I.I.I.I.I.I.I.I.I.I.I.I.",
"I.I.I.I.I.I.I.I.I.I.I.I.I.I.I.I.I.I.I.I.I.I.I.I.I.I.I.I.I.I.I.I.I.I.I.I.I.I.I.I.I.I.I.I.I.I.I.I.I.I.I.I.I.I.I.I.I.I.I.I.I.I.I.I.",
"I.I.I.I.I.I.I.I.I.I.I.I.I.I.I.I.I.I.I.I.I.I.I.I.I.I.I.I.I.I.I.I.I.I.I.I.I.I.I.I.I.I.I.I.I.I.I.I.I.I.I.I.I.I.I.I.I.I.I.I.I.I.I.I.",
"I.I.I.I.I.I.I.I.I.I.I.I.I.I.I.I.I.I.I.I.I.I.I.I.I.I.I.I.I.I.I.I.I.I.I.I.I.I.I.I.I.I.I.I.I.I.I.I.I.I.I.I.I.I.I.I.I.I.I.I.I.I.I.I.",
"I.I.I.I.I.I.I.I.I.I.I.I.I.I.I.I.I.I.I.I.I.I.I.I.I.I.I.I.I.I.I.I.I.I.I.I.I.I.I.I.I.I.I.I.I.I.I.I.I.I.I.I.I.I.I.I.I.I.I.I.I.I.I.I."
};
