/* XPM */
static char *a81082bed9f040e5e92eeff08331476e76aCt91cmFYXSSLH[] = {
/* columns rows colors chars-per-pixel */
"64 64 238 2 ",
"   c #010101",
".  c #040805",
"X  c #0E140E",
"o  c #131714",
"O  c #10180F",
"+  c #10250F",
"@  c #192917",
"#  c #1D331A",
"$  c #1E3A1C",
"%  c #21391E",
"&  c #253C22",
"*  c #293926",
"=  c #313D2F",
"-  c #274824",
";  c #2C5424",
":  c #3D5939",
">  c #3B5838",
",  c #32532B",
"<  c #2F6A2A",
"1  c #397332",
"2  c #1E7C14",
"3  c #41563E",
"4  c #43783B",
"5  c #495847",
"6  c #51744C",
"7  c #6C7C6A",
"8  c #0C9706",
"9  c #0E9906",
"0  c #0E9909",
"q  c #059502",
"w  c #129909",
"e  c #15980A",
"r  c #1D8816",
"t  c #1A9D14",
"y  c #1D9D18",
"u  c #179912",
"i  c #018F00",
"p  c #248B1D",
"a  c #25871B",
"s  c #26941A",
"d  c #1CA016",
"f  c #26A51F",
"g  c #298D23",
"h  c #2A8924",
"j  c #308726",
"k  c #338A2C",
"l  c #2C9423",
"z  c #279522",
"x  c #32972A",
"c  c #3D8C35",
"v  c #3B8936",
"b  c #3B9134",
"n  c #3B953A",
"m  c #2CA523",
"M  c #3CAB2E",
"N  c #33A82A",
"B  c #3EB22D",
"V  c #3DAD32",
"C  c #3EA235",
"Z  c #3EB433",
"A  c #428C3C",
"S  c #438C39",
"D  c #45923D",
"F  c #49943E",
"G  c #489C3D",
"H  c #43AC34",
"J  c #46AC3B",
"K  c #49AD3C",
"L  c #46A43B",
"P  c #43B636",
"I  c #46B936",
"U  c #44B33A",
"Y  c #49B53B",
"T  c #4BBB3C",
"R  c #46B839",
"E  c #46B933",
"W  c #4DC23E",
"Q  c #48C336",
"!  c #50C43E",
"~  c #478E40",
"^  c #469241",
"/  c #4A9443",
"(  c #4C9B43",
")  c #4D9A49",
"_  c #4A9745",
"`  c #539C4C",
"'  c #529849",
"]  c #5B9C55",
"[  c #5C9B57",
"{  c #578450",
"}  c #629E59",
"|  c #639F56",
" . c #62845A",
".. c #4CAE42",
"X. c #4CA343",
"o. c #54AD45",
"O. c #54A24B",
"+. c #54AC4B",
"@. c #5AAE4C",
"#. c #50A542",
"$. c #4EB842",
"%. c #54B445",
"&. c #59B146",
"*. c #55B249",
"=. c #5BB34C",
"-. c #5DBA4D",
";. c #55BD46",
":. c #5AA354",
">. c #5EAD51",
",. c #5EA259",
"<. c #59A852",
"1. c #5EB250",
"2. c #5CBD52",
"3. c #61BB4E",
"4. c #62A55B",
"5. c #64AC5A",
"6. c #60AA54",
"7. c #62BD54",
"8. c #66BD5C",
"9. c #6ABC5C",
"0. c #67B75A",
"q. c #71846E",
"w. c #7A8C79",
"e. c #6CB864",
"r. c #74B66A",
"t. c #78AD73",
"y. c #75B06D",
"u. c #4FC340",
"i. c #51C341",
"p. c #5DC34C",
"a. c #5BCB4B",
"s. c #56C947",
"d. c #5DC353",
"f. c #5FC853",
"g. c #5ED552",
"h. c #5BD64E",
"j. c #62CC4E",
"k. c #62C24E",
"l. c #63C554",
"z. c #64CB53",
"x. c #69CC56",
"c. c #65C35A",
"v. c #6AC55D",
"b. c #65C959",
"n. c #6BCB5C",
"m. c #6AC757",
"M. c #71C95E",
"N. c #6DD35C",
"B. c #68D256",
"V. c #73D55D",
"C. c #62D34B",
"Z. c #6FE45B",
"A. c #6CC461",
"S. c #6BC962",
"D. c #72C565",
"F. c #74CA63",
"G. c #74CB6B",
"H. c #7ACB6C",
"J. c #78C56B",
"K. c #6FD562",
"L. c #73D463",
"P. c #7CD66C",
"I. c #7DDA6D",
"U. c #76D865",
"Y. c #7DCD73",
"T. c #7CC474",
"R. c #7DD174",
"E. c #7FD972",
"W. c #77E464",
"Q. c #82BD7C",
"!. c #81DB6F",
"~. c #83CF76",
"^. c #84C37C",
"/. c #85CE7A",
"(. c #89CE7D",
"). c #83D176",
"_. c #85D27A",
"`. c #8AD37E",
"'. c #88DD76",
"]. c #90D37F",
"[. c #91BE8C",
"{. c #96BA95",
"}. c #A4B2A2",
"|. c #8ECA8B",
" X c #88CB81",
".X c #94CC8C",
"XX c #98CE8C",
"oX c #95CA89",
"OX c #8CD583",
"+X c #8ED984",
"@X c #94D18B",
"#X c #99D48E",
"$X c #99DB8E",
"%X c #94D786",
"&X c #96CB90",
"*X c #9ACC93",
"=X c #9DD493",
"-X c #9DDC93",
";X c #9BD696",
":X c #A0D495",
">X c #A2D49A",
",X c #A4DB9C",
"<X c #A3DD98",
"1X c #93E286",
"2X c #97E38C",
"3X c #9DE392",
"4X c #9FE895",
"5X c #97E98E",
"6X c #A1E294",
"7X c #ABE29E",
"8X c #A1E598",
"9X c #ACCCA6",
"0X c #ACD5A5",
"qX c #ACDBA3",
"wX c #ACD8A8",
"eX c #B2D5AA",
"rX c #B2DCAB",
"tX c #BADCB5",
"yX c #BDDABB",
"uX c #BBDBB7",
"iX c #B2CEAE",
"pX c #ACE2A3",
"aX c #AEE5A6",
"sX c #B2E5A7",
"dX c #B4E5AA",
"fX c #B9E6AF",
"gX c #B6EAAB",
"hX c #B7EBAB",
"jX c #BDE9B5",
"kX c #C1DABA",
"lX c #C3D8BA",
"zX c #C3E3BD",
"xX c #C3DCC1",
"cX c #CADEC9",
"vX c #C5E2C2",
"bX c #CCE6C9",
"nX c #D0EDCC",
"mX c #CDF6C9",
/* pixels */
"t t t d y e 9.=X@XXX@X=XJ.u t t t t t H K K K K J 0.&X|.|.|.|.&XyXyXlXlXlXxX#XU.I.W.I.P.U.F.F.F.F.F.F.( ~ ~ A D S 5.=XXXXXXXXXXX",
"t t t t t w 9.=X@X&XXX*XG.u t t t t e H ..J K Y J 0.&X&X|.|.&X&XyXyXyXlXlXxX%XP.I.I.I.E.P.F.F.M.F.F.F.( n ^ D D S 5.#XXXXXXXXXXX",
"d t t t d e 0.=XXXXXXX=XJ.e t t t t t M K ..L J L 0..X&X|.|.|.|.yXyXyXyXlXxX$XP.I.I.E.E.P.F.F.F.F.F.F.( A ^ D D S 4.=XXXXXXXXXXX",
"t t t t y 9 e.=XXXXXoX=XH.u t t t t t M ..Y Y K J 0.&X|.|.|.|.&XyXyXyXyXkXvX%XP.I.I.E.!.P.F.F.F.F.F.F.( A / A D S 5.#XXXXXXX@X%X",
"d t d d d w 0.;X.XXX.X*XJ.u t t d t t H K ..K K L 0.&X|.|.|.|.&XuXkXlXyXlXxX$XP.I.!.I.!.!.F.F.F.F.F.F.` D D ^ ^ S 5.#XXXXXXXXXXX",
"t e u u e u A.-X=X=X$X,XY.u u u u u e M o.K Y K C e.&X&X.X&X.X&XkXvXxXxXxXvX$XI.!.I.I.I.!.F.F.F.F.F.F.' v c A c v 5.<X=X#X=X=X#X",
"U U U ..U U ..+.O.<.X.<.X.U J U U U P K J H H K H 2.G.T.T.T.T.T.t.t.y.t.t.y.D.U.U.U.U.U.F.7.8.7.m.7.7.Q.|.[.[.[.[.y.O.O.<.+.@.<.",
"d.d.d.d.d.c.n a h p a a x d.d.d.c.d.d.K H H H H H %.A.c.c.c.b.c.b S c v v v -.V.N.N.N.K.n.=.-.1.-.=.3.0XbXcXxXxXnXQ.2 p r r r a ",
"2.d.2.2.2.d.C g g g z r x 2.2.2.2.2.d...V H H H H %.S.v.v.v.v.A.F F F A F c 7.K.N.K.N.K.N.2.1.3.=.2.=.0XxXyXyXyXxXQ.r g g g g g ",
"2.2.d.d.d.d.C p g h g r n d.2.d.d.2.2...H H H H V %.S.A.A.A.A.9.F A A F ^ c 1.U.N.K.V.K.n.1.2.-.2.-.1.>XjXuXyXtXvXQ.r g p z g p ",
"2.d.d.d.2.d.C a g z g h x d.d.d.d.d.d.K H M H L L %.S.A.b.S.v.c.F D F D D c 1.L.N.B.B.V.x.;.-.-.=.-.-.0XcXxXyXtXbXQ.r g g g g g ",
"2.2.2.d.2.d.C a p p h p z c.c.c.c.l.c.Y K Y U E P %.b.v.v.v.A.c./ A A A D c 7.W.V.W.U.W.V.7.7.7.7.l.-.>XxXuXyXuXcXQ.r h p p p p ",
"c.c.c.A.c.A.L z f l x s n [ ) ) ' ' ' S c v v S v ` H.D.F.G.G.A./ D D A F ~ ] 5.@.6.<.6.:.' / ' / / { 0XjXtXxXyXcX^.s x x l l l ",
"_.OXOXOX`.OXc.U R R R Q n                         : 3X_.+X`.OX).` ' ) ) / O.&                         }.nXxXcXvXbX%XB Y T Y R T ",
"OXOX XOXOXOXc.E I I U Q n                         > 2X/.`.`.OX(.` ' ( ) ( O.&                         }.nXvXcXjXbXXXB E I I I I ",
"_.OXR.OX`.OX7.P I I R Q A                     .   > 2XOXOX`.`._.` ( ) ) ) ` -   .                     }.nXvXcXvXbX@XE Y Y I T I ",
"OX_.`.`.OXOXd.Z I I I Q n                         : 2XOXOX_.OX/.` _ ) ) _ O.&                         }.nXvXxXzXbX@XB R I I Y I ",
"OXOX`.OX`.OXc.Z I I R Q n                     .   : 2X/.`.OXOX_.` _ ) ) _ ` -                         }.nXvXcXvXbX@XB R R T Y I ",
"`.OXOXOXOX+Xc.P I I P Q n                         > 1X_.OXOXOX_.` ) ) ) _ O.&   .                     }.nXzXbXvXbX@XH I I E E I ",
"b.b.n.b.v.A.s.T W W T s.F                         , U.m.c.n.n.v.J L J J C *.-                         y.OX(./.(.OXS.Q Q T W T W ",
"f.l.p.l.f.a.s.u.u.u.u.s.G                         ; N.a.f.l.p.p.U H H K H T -                         ] L.v.M.m.M.f.W u.! i.i.! ",
"l.l.l.l.l.f.s.W u.u.u.s.G                         ; N.k.l.l.l.l.K K H K H %.-   .                     | L.F.F.M.F.b.u.W ! ! i.! ",
"l.l.j.j.l.l.s.T u.W u.s.G                         ; N.f.f.j.a.l.K H H K H Y -   .                     | V.M.D.F.F.j.W u.i.W ! i.",
"l.j.l.j.l.k.s.i.W W ;.s.G     .     .   .   . .   ; n.7.k.d.l.f.H L H L M Y -   . . .   .         .   | V.M.D.M.F.m.W ! i.i.i.i.",
"z.b.b.l.l.z.p.T ! T T ! /                     .   , Z.B.N.N.N.B.T T T T K p.-   .     . .             | U.n.F.F.M.m.W W T T $.W ",
"2.2.7.d.l.2.d.l.l.m.z.C.5.- - - - ; - > > > : : : 5 4 v 4 4 4 1 < < < < < 1 5 5 5 3 5 5 3 % $ % $ $ $ >.N.b.b.x.x.l.b.l.z.z.z.z.",
"@.@.=.@.1.+.D._._._.OX_.Y.0.7.7.7.7.9.'.1X1X1X+X4X .  .                 .   w.mXzXzXzXzX0XS F A D G A ;.a.a.a.a.s.n._._._.)._._.",
"6.1.1.=.1.@.D._.Y./._._.H.@.1.>.6.@.6.~.OX XOX X1X6   .         .   .   . . q.zX0XeXeXrXoXS S S v v c ;.a.a.a.a.a.n._./._./././.",
"-.1.1.1.1.@.D././.)./.).Y.<.=.1.=.=.6.~.OXOX X/.5X{                         q.jXeXeXwXtX&XA A A ~ A v *.a.a.a.a.a.n._.).R.)././.",
"=.1.1.>.1.@.A._./._.)._.H.=.1.1.3.6.@.~.OX/.OX/.1X{                     .   q.jXeXeXwXtX&Xv A A c ~ v ;.a.a.a.a.a.n./.~././././.",
"1.1.6.3.1.1.D.)./././.).H.6.1.1.1.1.6.~.OX XOX X1X .                        q.zXeXtXrXtX&X4 A A A A v ;.a.a.s.s.s.x.).~.)./.~.~.",
">.@.1.=.1.<.D.OX/././._.H.<.1.1.>.>.=.T. X X^. XOX6   .                 .   7 tX9X9X9XiX{.n n A A A v 2.x.x.z.b.l.F././._.(./.(.",
"F F F / / D r.#X.XOXoX#X^.D F F / / _ $ X O O O o o .                     . X o o o o o - c.l.l.f.f.k.#XqX;XqX,XqX;X@X@X@XoX%X@X",
"F D D D F D r.#X.X@X%X#X^.D F D D ~ / @                                     .       .   # N.z.z.B.j.j.$XwXwXwXwXwX>X@X@X@X@X@X@X",
"F / F / / A r.$X@X@XXX#X^.S D F / ^ / @                                           .     $ x.j.j.j.j.a.;XeX0X0X0XwX>X.X@X@X@X@X@X",
"D D / / / A r.#X@X@XXX=XQ.D / ^ / ^ _ @                                                 $ B.l.B.z.z.j.#XeXwXwX0XwX>X.X&XXX@XXX@X",
"~ ^ ^ / / A r.#X@X@X@X#X^.~ ^ / ~ ^ _ @                                             .   $ N.a.z.z.z.j.#XeX0X0X0X0X:X%X@X@X@X.X@X",
"/ ^ ^ ~ ^ A r.#X@X.X.X#XQ.~ / ~ ~ ^ ~ @                                             .   & N.z.z.B.z.z.-XdXwXrXqXsX>X@X@XXXXX@X.X",
"` ` ` ` ` ` ^.pX-XpX<XpX@X` ` ` ` ) ] @                                                 # c.-.3.k.p.-.e.y.y.e.y.e.[.7X,XqX,X,X,X",
",.,.,.[ ,.] @XjXdXgXsXhX,X[ 4.,.,.,.4.#                                             .   # -.-.-.-.-.-./ n D A F v e.jXdXgXgXgXhX",
",.,.[ 4.4.[ &XfXsXdXsXhX;X[ [ 4.[ ,.4.@ .                                           .   @ 7.=.=.2.-.3.( G G ( ( A r.hXsXsXdXdXdX",
",.,.,.,.[ [ |.gXsXsXdXgX<X] ,.,.[ ,.4.@                                                 # 7.-.2.=.=.-.X._ ( ( ( D r.hXdXgXdXdXdX",
",.,.,.,.,.] .XhXsXdXdXhX-X] :.,.,.,.4.@   .         .     .             .               # 7.*.-.-.=.3.( _ / G G D r.hXsXsXsXdXsX",
",.,.,.[ [ [ .XjXfXfXhXhX>X[ } } } [ 4.#           .                                     # c.-.2.-.2.7.G / / _ ( D r.jXhXfXfXfXfX",
"1.>.5.5.>.1./.8X3X5X3X8X+X1.5.5.>.5.5.#           O - & * % % % * = * * * = o   .       # @...+.%.o.o.X.K #.#.O.G A.4X3X3X6X3X3X",
"E.I.I.I.I.E.N.z.z.f.z.l.n.I.I.E.I.I.'.&       .   3 3X].].%X].%X0X,X0X0X0XfX5   .       + k j j j k h 2.m.x.m.c.x.l.z.l.z.z.z.z.",
"E.I.I.I.I.P.N.z.z.B.z.a.B.I.I.I.I.I.'.&   .       > ].(.`.(.(.`.=X=X=X:X=XpX3           + b k k k k j -.l.l.b.l.l.l.C.g.j.g.z.z.",
"I.I.I.I.I.I.N.g.z.B.z.g.B.I.I.I.I.I.'.*   .   . . 3 2X).(.].`.(.:X:X:X>X=XpX5   .   .   + k k k k k j -.x.l.l.l.z.z.j.z.z.z.j.B.",
"I.I.I.I.!.!.N.a.j.x.z.j.N.I.I.!.I.I.!.%   .   .   : %X`.(.`._.(.=X:X>X>X=XpX5   .       + k k k k k j =.x.l.l.b.l.z.j.B.j.z.B.z.",
"I.I.I.I.P.!.N.j.j.x.z.j.x.I.I.I.!.I.'.%       .   : 1X(.`.`._.(.:X;X>X;X;XpX5   .       + k k k k k j =.b.z.l.l.l.z.j.z.z.j.z.j.",
"P.P.I.P.!.P.N.j.x.z.z.j.B.I.U.I.I.U.!.%           3 $X].`.].`.OX;X>X;X;X;XrX5   .       o v j j j j p 3.n.l.b.c.l.z.z.z.B.z.z.B.",
"4X6X6X8X<X6XJ.=.-.-.-.%.l.6X6X6X6X6X6Xy.] ` O.] ] L f f m f m m %.%.*.*.%.%...L ( G X.( K R I Y Y Y K M.H.L.G.G.U.c.;.-.;.-.&.;.",
"pXpXpXpXqXsX^.K &.@.@.&.0.sXqXsXpXpXpX).x.N.x.x.V.P i q q 9 q q N M M N V N ;.g.C.C.h.h.a.! ! i.! i.u.G.R.R.R.R.).A.o.@.&.&.+.=.",
"7X7X7XpX7X7XJ.&.3.&.@.o.9.7X7X7XpXpXpXF.k.9.m.c.m.P 8 0 0 0 0 0 M V P V H M T a.s.a.a.a.s.;.! i.i.! W K._.Y.Y.Y.R.A.o.=.@.@.&.@.",
"7X7XpXqXaXaXJ.o.&.&.&.o.0.sXpXpXpXpXsXJ.m.v.l.c.M.V q w 9 9 9 w M V V V V M $.j.a.a.a.a.s.W W W W W T F.R.R.R.R.R.v.o.@.@.*.&.*.",
"7X,X7XpXpXaXJ.+.o.&.&.o.9.7X7X7XpXqX7XF.l.m.v.d.m.P q w 0 0 9 w M V V V V V u.a.a.a.a.a.a.u.W u.! W u.G.R.Y./.R.R.A.+.=.=.&.&.@.",
"7X7X7XpXsX7XJ.&.&.&.@.K 9.7X7XsXaXaXpXH.b.n.S.v.M.P q 9 0 w 8 w M V Z V Z V $.a.a.p.a.a.a.u.u.W ! W u.F.Y.P.Y.R.R.A.+.&.&.o.&.@.",
"-X-X<X<X<X<XD.&.3.&.3.T 9.<X<X6X-X,X3X8.+.@.&.&.-.N q w 0 w 8 w m m m N N m $.f.a.s.p.a.s.R T $.T T R Y.`._.`.`.OXJ.=.=.-.=.&.-.",
"OXOX`.`.].].D.-.3.p.3.-.v.%X].`.OXOX+X_ k v k k v s 0 w 0 9 0 8 d d u u y u Z a.p.p.p.a.;.H V V H Z H /.3X$X-X$X-XY.-.d.7.3.-.2.",
"+X+X+X+X+X+XD.=.3.-.3.-.8.+X+X+X+X+X+XO.k n b n c z 0 9 0 9 8 0 d d d d d u Z f.p.p.-.p.;.J H H H H H `.3X$X-X#X3XY.-.-.-.3.-.3.",
"OX+X+X%X+X+XD.-.7.3.3.-.8.+XOXOX+X+X+X) v b b b c z 0 9 0 8 8 w u d d d d u Z b.p.p.p.k.;.V V H H J V OX-X-X-X$X2X).&.-.3.3.3.3.",
"OX+X+XOX+X%XD.7.-.3.3.2.8.+XOXOX+X+XOX) k b b b c z 0 9 0 9 8 w u d d u d u Z f.-.p.p.p.-.J U H H Z V /.-X$X$X$X3X).3.k.3.-.k.-.",
"+XOXOXOX+X+XD.=.3.-.3.3.9.+X+XOXOXOX+X) v b b b c z 0 9 0 8 0 0 d d d d d u U l.p.p.p.k.;.H H H H H H (.3X$X-X$X-X).&.3.3.-.3.2.",
"@X%X+XOX+X+XD.3.3.2.3.-.v.+XOX+XOXOX+XO.k b b b c z 0 9 0 0 0 0 u d d u d u Z l.p.p.p.k.;.H Z H H H V (.-X$X-X#X3XY.-.3.3.3.3.3."
};
