/* XPM */
static char *_6e33a9ee0c24926a2c6940c9d1c73e9ou3bdKjUBs96zYnh[] = {
/* columns rows colors chars-per-pixel */
"64 64 123 2 ",
"   c #573C27",
".  c #583B27",
"X  c #5B3E29",
"o  c #5D402A",
"O  c #61412B",
"+  c #624631",
"@  c #755237",
"#  c #785437",
"$  c #775439",
"%  c #79563A",
"&  c #7D593C",
"*  c #745742",
"=  c #735843",
"-  c #7A5940",
";  c #6D6A66",
":  c #6C6B6B",
">  c #726A63",
",  c #716C69",
"<  c #815B3E",
"1  c #8E6545",
"2  c #916746",
"3  c #926847",
"4  c #956B49",
"5  c #986C49",
"6  c #986C4A",
"7  c #996C4A",
"8  c #986D4A",
"9  c #996C4B",
"0  c #986D4B",
"q  c #996D4B",
"w  c #9A6D4A",
"e  c #9A6C4B",
"r  c #996E4B",
"t  c #9A6E4B",
"y  c #9B6E4C",
"u  c #996D4A",
"i  c #936D50",
"p  c #946E50",
"a  c #956E50",
"s  c #966F50",
"d  c #946E50",
"f  c #AC7B56",
"g  c #AE7D57",
"h  c #AD7C57",
"j  c #B07E58",
"k  c #B07F58",
"l  c #B27F58",
"z  c #B27F59",
"x  c #B07E58",
"c  c #877F7A",
"v  c #AD815C",
"b  c #AD805E",
"n  c #B28059",
"m  c #B38059",
"M  c #B2805A",
"N  c #B3805A",
"B  c #B3815A",
"V  c #B58158",
"C  c #B48259",
"Z  c #B78359",
"A  c #B4815A",
"S  c #B4825A",
"D  c #B5825A",
"F  c #B5825B",
"G  c #B6825B",
"H  c #B6835B",
"J  c #B1815D",
"K  c #B0825D",
"L  c #B3835E",
"P  c #B7835C",
"I  c #B2845F",
"U  c #B6845C",
"Y  c #B7845C",
"T  c #B5825A",
"R  c #B8835A",
"E  c #BA855A",
"W  c #BA855B",
"Q  c #BB855B",
"!  c #BA865B",
"~  c #B8845C",
"^  c #B9845C",
"/  c #B9845D",
"(  c #B9855D",
")  c #BA855D",
"_  c #B9865D",
"`  c #BA865D",
"'  c #BA865E",
"]  c #BB865E",
"[  c #BB875E",
"{  c #BA855D",
"}  c #87807A",
"|  c #86837D",
" . c #89817A",
".. c #8B827B",
"X. c #8C847C",
"o. c #8F867D",
"O. c #8A817B",
"+. c #B48560",
"@. c #B58560",
"#. c #B58661",
"$. c #B58662",
"%. c #838180",
"&. c #848280",
"*. c #868380",
"=. c #868381",
"-. c #868380",
";. c #888481",
":. c #8B8581",
">. c #888582",
",. c #8A8582",
"<. c #898683",
"1. c #8A8682",
"2. c #8A8783",
"3. c #8D8782",
"4. c #888481",
"5. c #838689",
"6. c #848789",
"7. c #85878A",
"8. c #87878A",
"9. c #878789",
"0. c #878888",
"q. c #878888",
"w. c #888889",
/* pixels */
"( ( ( H 0 7 7 6 0 4 4 3 % # & % % % % & n _ ( H 6 4 0 4 0 3 6 3 % % % % % % % @ X     X % % @ % % % % & n ( ( n & # # & T ] ( ( ",
"( H ( H 0 4 4 4 4 4 0 4 % # % % % % @ & U U ( T 0 0 4 4 4 4 6 4 % # % % % % % % X X   X % % % % % % % & H ( ( H & # # & T @./ / ",
"( ( ( ~ 0 4 4 0 6 0 6 4 & % % % % % % & U ( ( U 6 0 6 6 6 0 6 4 & % % % % % % @ X   . X @ % % % % % @ & H ( ( n & # % - H ( ( ] ",
"H n H n 0 4 6 4 3 3 3 2 % % % % % % % % k n n z 4 3 3 3 3 3 3 3 % % % # % @ % @ O X X o @ % % % & & & & n ( U n % % @ % g H z n ",
"& & & & 4 0 0 3 O X o o % % % % % % % @ O O O O o o o o o o . O % % % @ o o   o 1 3 3 2 % % % & k L H n 6 6 0 4 O X X X O O O O ",
"# # % % 3 0 4 3 O . . X @ % % % % % % % . . . .   . . .     . o % % % %       o 3 0 0 4 % @ % & n ( ( ( 6 4 0 3 O . . . . . . . ",
"# # % % 4 0 0 3 X .   X @ % % % % % % % . . . . .   .   . .   . @ % % @ o     o 3 0 0 3 & % % & H ( ( H y 4 6 3 X . . . . . . . ",
"& & & & 3 4 4 2 O X X o @ % @ @ % & & # O o o o o o o o o . o o % % & % X     o 2 0 3 2 % % % % g n n z 0 i a 4 O O O O X X . X ",
"n H H k & & & & $ $ % @ X X . O g H z n 4 2 3 3 3 3 3 2 % % @ & v H H g O . . o @ & % % % % % % O X o + } 1.;.X.j z H f # % % @ ",
"( ( ( H & $ @ @ % # % @ X . . O H ] ~ R 6 6 6 6 4 0 0 4 # # $ & H ~ ( n O . . o @ % % % % # % % X     o &.0.5.1.$.( ( H & # % # ",
"( ( ( I & @ % % % $ % @ X . . O n ] Q ~ 0 4 4 4 0 0 0 4 # % @ & H ( ( H O . . . % % # % # % # @ X . X o %.0.5.1.$.R ( H & % % % ",
"H H U n - $ & & & & & & X X X O f n H l 0 6 6 4 4 3 4 3 & & & < n H H j O . O o % % % # % # # @ o X X o  .3.1.o.L H ( z & % % % ",
"6 7 7 a > ; ; , v H T z & @ # @ O O O O 3 4 0 4 & % % - z T H z 6 6 6 6 3 3 3 3 % % % @ o o o o @ % @ % L $.I U 0 0 0 0 % % % % ",
"7 4 4 4 ; : : , I ( ( T & # % $ .     . 3 0 4 3 # % # & T ( ( / 6 7 4 4 0 6 0 4 % @ % % o   . . @ % # - V ] ~ Z 0 3 0 3 % % % % ",
"4 0 7 4 ; : : , L ~ ( T & @ % @ X X X o 3 0 0 4 % % # & z ] / z 6 4 6 0 0 4 6 4 % % % @       . % % # & H ( ( / 0 0 0 4 % % % % ",
"0 4 4 i > : ; > n ~ U z < & < % X     o 3 4 4 4 & # % & j / / z 6 6 0 4 3 3 3 3 % % % % O O O O % % % & n U T z 4 4 3 2 % % % % ",
"3 0 4 4 % - % - 4 0 6 y z H H g O   . X 3 0 4 4 % % % % - & & < 3 9 9 3 + X X o @ % # & j z z j % % % % 0 0 y 3 O o X O $ # # % ",
"0 4 4 4 # # # % 4 7 4 7 / ( ( z o   . X 3 6 4 4 % % % % $ $ $ % 4 3 7 3 O . . X % % % & R ] / / & % % % 3 3 0 3 X X . X $ & % % ",
"4 4 4 4 % % % & 3 4 7 9 H ( ( z O . . O 2 0 0 3 % % % % % % % & 4 9 7 3 X .   X @ % # & R / Q z & % % % 0 0 0 3 X . . X @ % % % ",
"9 9 0 7 % @ @ % 4 7 4 0 z H ( z O X X O 3 0 4 4 % @ $ $ $ $ @ $ 3 3 3 2 O X X o % % @ & z z z j % % % % 3 3 4 2 O X X o % & & & ",
"H / / z + X X O 3 6 4 7 9 9 0 4 % @ @ % 3 4 6 3 O X X X X X X X X X X O @ @ % @ % % % @ O O O O % % % % % % % % @ % % # z T H z ",
"/ / ] z O . . X 3 6 4 4 7 9 4 3 % % % & 4 0 0 3 O . . . . . . . . . . X % % % % % % % @ . . . X @ % @ % % % % % % % % & T @.( ( ",
"/ / / z O . . X 3 0 4 4 4 4 4 4 % # % # 3 0 6 3 X .   . . . . . . . X X @ % % % % % % @ . . . X % % % % % % % % % % % % H ( ( ( ",
"( H / z O X X O 1 4 4 4 4 4 4 3 - - % & 3 4 4 2 O . X X O O O O O O O O @ % % % & & & % O O O O @ % % % % % % % % % % & z / H / ",
"( / ( H % @ % @ % % & % # % % & > : ; > % % % % % % @ % k z z z z j z k & $ # & z H H n z z H f % % % % 3 4 4 3 # % % % 3 0 0 0 ",
"/ R ( z & % % % % % % % % % # - ; : : ; - @ % % % % % & T ( ( ( / / ] H & $ # & / @./ / ( ( ( n & % % % 4 7 9 4 # % % & 3 0 4 7 ",
"( ( ( H & % % % % % % % # % # % : : : ; % % % # % % % & H / ( ( / / / H & % # & T ( ( ( ( R ( H & % % % 3 4 4 4 & % % % 4 0 7 4 ",
"H z H z % % % % % & & & & & & - > > : > - % & # @ % @ % k H H H / / T z & @ @ & z ( T T H H H z % % % % 4 a a 4 & % % & 4 6 4 4 ",
"& & & & % % % & k L H z H z H n 4 i 4 i 3 3 0 2 o X X o % & % - 9 e e 3 O X X O 4 0 0 9 & & & & % % % - | 3.1.| 0 3 4 3 4 4 4 7 ",
"# $ % % # % # & T ( ( ( ( ( ( ( 0 4 7 4 0 0 6 3 X .   X @ % % % 3 3 e 3 X . . O 3 4 9 3 % % $ % % % @ - &.8.7.4.a 3 0 0 4 4 4 4 ",
"# % % % % % % - T ( ( ( ( ( ( T 0 4 4 4 4 4 0 3 X     X % % % % e 4 e 3 X . . X 3 9 4 4 % % % % # $ $ - &.0.7.1.i 6 6 0 4 0 4 6 ",
"% % % % % % % % z T H z T T / T 4 4 4 4 4 4 0 2 O X . X @ % @ % 3 3 e 3 O O X O 3 4 4 3 % % % % & # & -  .<.;.| 4 3 3 3 3 4 3 4 ",
"3 3 4 3 % % % % & % & < 0 0 0 0 & # % & 4 0 0 3 o     X o o   o % & % & 3 3 3 3 % % & % % % % % 4 4 3 4 0 i i 4 O X O O $ & % & ",
"0 0 0 3 % % % % % % % # 4 4 4 3 & % % % 3 4 0 3 o   X         X @ % % % 4 9 4 4 % % % % % % % % 4 0 0 0 7 3 6 3 X . . X $ $ $ $ ",
"0 0 0 4 & % # % % % % & 4 4 0 4 % % % & 4 0 0 3 o   X         X @ % % % 4 9 4 4 & # % % % % % % 3 0 3 0 7 7 0 3 X X . X $ % $ $ ",
"3 3 3 3 & % & # % @ @ # 2 4 4 3 % % % # 1 3 3 1 o       X o   o % % % % 3 4 4 4 % % % % @ % @ % 4 6 6 6 6 6 6 4 O X X X $ % & & ",
"& % & & 3 4 4 3 X X X o % % % % % % % @ o o o o       o @ @ % @ % % % % 4 0 4 4 % % % @ o o . O j ~ R H H H H n % @ @ # 3 e 3 3 ",
"% % % % 4 4 6 3 X . X X % % % % % % % @ X       o     o % % % % % % # % 4 4 4 4 % @ % % . . . O n ] ~ ( ( ( ~ H - % % & e 3 7 7 ",
"% % % % 4 4 4 3 X . . X @ # % # % % % % X   . . . .   X @ % # # % % % & 4 4 4 4 % % % % o . . O n ] ( ( ( ( ( H & # # # 4 4 4 9 ",
"% % % % 4 4 9 4 O X X X # & & & % % % @ O X X X O O o O % & & # @ % @ # 4 0 0 4 < % & % . . . O j ~ H H H H ( n < % - - 3 4 3 4 ",
"% % % % 2 0 0 3 % @ @ % v H H g & % % % 1 3 2 4 z z z z 4 3 0 1 o X X O k T T R H H H f o . . o 4 6 9 7 7 7 6 a | 4.|  .- # & % ",
"% % % & 3 0 0 4 % % % & H ( ( H & @ % % 4 0 0 r / ( ( H 6 4 6 3 X . . O H ( ( ( ( ( ( z o   . o 3 4 7 4 7 4 7 i 1.7.w.&.& @ % % ",
"% % % % 3 0 4 3 % % % & n ( ( H & % % % 4 6 3 0 / / @.T 6 0 0 3 o   . O z ( ( @.( / ] H O   . o 3 7 4 7 4 7 4 a 1.7.w.1.- % % % ",
"% % % & 3 4 4 3 % % % & n U / n & % % % 3 0 4 0 z H R z 0 6 0 3 + X X O k / / T z z H f o     o 3 7 4 0 4 4 4 4  .&.| } - @ $ % ",
"4 3 4 3 & % % % % % % % 0 0 0 0 % % % % 4 0 0 4 & & & < 4 4 4 i ; ; : > 4 9 0 4 O O O O X   . o 3 7 4 4 4 4 7 4 - - - % X   X X ",
"4 0 0 4 & % % % @ % % % 3 0 0 3 % % % & 3 0 0 3 % % % % 4 4 4 i : : : > i 4 0 3 . . . .   o . o 3 4 4 4 4 4 4 4 & @ % $ X   X   ",
"0 0 0 4 & % % % % % % & 3 0 0 3 % % % % 4 0 0 3 # # @ & 4 4 4 i ; : : ; i 0 0 3 O . . .       o 3 0 7 4 7 7 9 3 $ $ $ @ X .   . ",
"2 2 2 1 % @ @ % % % % & 3 0 0 3 % % # # 3 4 4 3 < & & & 2 4 4 4 > ; : > 2 3 3 3 O . X X o o X O 2 4 4 4 4 3 4 3 < & & & O X O O ",
"o o o o o X X o @ % % % 3 0 4 4 % % % % % - % - z T T z & % % % % - $ % % % & % $ @ $ % 3 3 3 3 & # & & % % % & n T H H z n n n ",
"        . .   X % % % % 4 0 0 3 % % % % % # % % H ( ( T & % % % % % % @ % % % % % % % % 4 9 4 4 # % % % % & % & U @.( ( ( ( ( ( ",
"        . . . X @ % % % 3 0 0 3 % % # @ % % % & T ( ( H & % % # @ % % % % % % % % % % % 4 4 9 4 % % % % # # % % H ( ( ( ( ( ( ( ",
"o . o o o o X o % % % % 3 4 4 3 % % % % % % % & n U T n & % & # % % % % % @ @ % @ $ @ % 3 3 3 3 % % % % & & % < n U H H H H H ~ ",
"@ @ % # 3 3 3 2 % @ % % % % % % = = = = @ % % % 0 0 7 7 4 4 4 3 & % % @ o   o X X X X X X o X O @ % % & k L H z e 7 9 7 6 7 7 7 ",
"% % % % 0 0 0 0 & % % % % % % % = = = % % % % % 3 0 4 4 4 7 4 4 % $ & @ o       X   X   X . . X % % @ & T U ( ( 7 4 7 4 7 7 3 7 ",
"% % % % 3 0 0 3 % % % % % @ % % = = = = % % & & 4 7 4 0 4 7 6 4 % @ $ @     X           X . . X @ % @ & T ( ( U 7 4 4 0 6 4 7 7 ",
"% % % & 3 0 3 3 % % % % & & & & - = = = @ @ @ @ 3 4 4 3 3 3 3 2 & & & & o X X X X X X X X X O X % % % & z T T n 0 4 0 4 0 0 4 4 ",
"3 3 0 3 % % & % % % % & v H H g & % % $ X X o o % & % % O X O O k L H k # @ % % @ @ $ % 3 3 3 3 # % & # & & & & 4 7 4 4 7 7 4 4 ",
"0 0 0 3 % % % % % % % & H ! ( H & # % % X     o @ % % @ X . . X n ( ( H & # % % % % % & 4 4 0 4 & % % # % % % # 4 4 4 4 4 4 4 4 ",
"0 4 0 3 & % % % $ % $ & H ( ( H & # % @ X   X   @ % % @ X   . O n ( ( H & % % @ $ % % % 4 4 4 4 # % % @ % % % % 4 7 4 4 7 7 7 7 ",
"0 4 0 3 % % % % & & % & n U H n - % % % o   X o - = - % o X X o k U ( n & % % % % % % % 3 4 4 3 - - - - % # & & 3 4 4 4 2 4 2 2 ",
"4 4 0 3 & % % % j H H z 6 6 6 6 3 4 4 3 % @ @ % c ;.;.} $ @ @ % 4 6 7 7 4 4 4 3 % % % % & & # - c >.&.| 4 3 0 3 & % # % o X X o ",
"0 4 0 3 % % % & H ( ( / 6 7 7 7 4 0 0 4 % % % - &.0.0.&.- % % & 4 4 7 4 0 4 4 4 & % % % $ # $ - | 0.8.1.a 3 0 3 % % % @ X     X ",
"0 4 0 3 % # # & n ( / H 0 4 4 7 3 0 0 3 % % # - &.7.0.&.- % # % 4 7 4 0 4 4 0 3 % % % % # % $ - | 8.7.4.i 0 0 3 & % % @ X X X   ",
"0 0 0 3 % % # & H ( ( / 0 4 4 4 0 4 0 4 % % $ - ;.7.0.;.- % % # 4 4 4 0 4 4 0 4 % % % % % % # % 4.8.7.4.i 4 0 3 % % % % X     X "
};
