/* XPM */
static char *a768aa6db00c44b1fcd679e06d84247a1UDH2kKNe7JlRvuZ[] = {
/* columns rows colors chars-per-pixel */
"64 64 160 2 ",
"   c #9B59B6",
".  c #9A58B5",
"X  c #9857B3",
"o  c #7E4894",
"O  c #7B4691",
"+  c #7C4792",
"@  c #7B4791",
"#  c #7C4692",
"$  c #7A478F",
"%  c #694D76",
"&  c #674E73",
"*  c #684D74",
"=  c #684E74",
"-  c #674D72",
";  c #6B4E78",
":  c #9758B1",
">  c #9B59B7",
",  c #9756B1",
"<  c #663B79",
"1  c #623873",
"2  c #623874",
"3  c #643976",
"4  c #7A4690",
"5  c #633975",
"6  c #674D74",
"7  c #673B79",
"8  c #643A77",
"9  c #7D4793",
"0  c #684E73",
"q  c #653A78",
"w  c #613772",
"e  c #613873",
"r  c #79458F",
"t  c #9C59B7",
"y  c #9757B2",
"u  c #9957B3",
"i  c #804996",
"p  c #7D4894",
"a  c #694C76",
"s  c #674C73",
"d  c #674C74",
"f  c #6A3D7D",
"g  c #663A78",
"h  c #683C7B",
"j  c #7E4895",
"k  c #9958B4",
"l  c #9555AF",
"z  c #9656B1",
"x  c #653B76",
"c  c #623A74",
"v  c #633A75",
"b  c #633B74",
"n  c #7D4893",
"m  c #7F4996",
"M  c #7A458F",
"N  c #643977",
"B  c #633875",
"V  c #674D73",
"C  c #7B4690",
"Z  c #664C72",
"A  c #664D71",
"S  c #6A4E77",
"D  c #78458E",
"F  c #653B77",
"G  c #6B4D78",
"H  c #6B4F78",
"J  c #6E4F7C",
"K  c #9557AF",
"L  c #9858B2",
"P  c #683B7B",
"I  c #9957B4",
"U  c #9857B2",
"Y  c #9C5AB8",
"T  c #9354AD",
"R  c #673B7A",
"E  c #653A77",
"W  c #7A4590",
"Q  c #603772",
"!  c #77448C",
"~  c #79458E",
"^  c #7B4891",
"/  c #7B4790",
"(  c #7C4891",
")  c #7A468F",
"_  c #643A76",
"`  c #512F61",
"'  c #4F2E5F",
"]  c #502E5F",
"[  c #522F61",
"{  c #502E60",
"}  c #563267",
"|  c #9455AD",
" . c #9657B0",
".. c #7A5589",
"X. c #775485",
"o. c #785587",
"O. c #765385",
"+. c #4E2D5D",
"@. c #4E2E5D",
"#. c #4D2D5B",
"$. c #533063",
"%. c #9656B0",
"&. c #9C5AB7",
"*. c #9959B3",
"=. c #7A5689",
"-. c #775685",
";. c #785686",
":. c #765484",
">. c #643B76",
",. c #633976",
"<. c #4D2D5C",
"1. c #4C2C5B",
"2. c #533062",
"3. c #9B58B6",
"4. c #795688",
"5. c #765584",
"6. c #755384",
"7. c #613773",
"8. c #523161",
"9. c #51305F",
"0. c #513060",
"q. c #543164",
"w. c #523062",
"e. c #583369",
"r. c #7C568C",
"t. c #795488",
"y. c #683D7A",
"u. c #663A79",
"i. c #6D5279",
"p. c #70557C",
"a. c #6E547A",
"s. c #72557F",
"d. c #9356AC",
"f. c #9556AF",
"g. c #73597F",
"h. c #71587D",
"j. c #755882",
"k. c #9D59B8",
"l. c #9A59B5",
"z. c #6F557B",
"x. c #72587E",
"c. c #70577C",
"v. c #745881",
"b. c #512F60",
"n. c #70547D",
"m. c #735780",
"M. c #71567E",
"N. c #755683",
"B. c #79478E",
"V. c #7D4993",
"C. c #7C4793",
"Z. c #9556B0",
"A. c #553165",
"S. c #4F2E5E",
"D. c #78458D",
"F. c #7F4895",
"G. c #78448D",
"H. c #613872",
"J. c #683B7A",
"K. c white",
/* pixels */
"                  .   X o O + + + @ # $ % & * = = = - ; : > .     . > , < 1 2 3 4 + O o X   .             . > , < 1 5 5 5 5 5 5 ",
"                  .   X o O + + + @ # $ % & * 6 * = - ; : > .     . > , 7 2 5 8 4 + O o X   .         . . .   , 7 2 5 5 5 5 5 5 ",
"                  .   X 9 4 O O O @ # $ % & = 0 = = - ; : > .     . > , q w e 5 r + 4 9 X   .       .       t y q w 2 1 1 1 1 1 ",
"                  .   u i 9 o p + @ # $ a s d d 6 = - ; : > .     . > , f g < h + j 9 i u   .     .   . u X k l f q 7 < < < < < ",
"                  .   . u X k z p O + 4 x c v b d = - ; : > .     .   . , , , , X X X u .   .     .   u i n p m l y , , , , , , ",
". . . . .           .       > u o O + M N 2 B v d = V ; : > .       .   > > > >           .       .   X 9 C C 9 k t     > > > > ",
"          .         .       > k o O 9 4 3 1 2 c Z & A S : > .         . . . . . . . . . .         .   X o O O o k t     . . . . ",
"X X X u .   .     .   . u X k z + r 4 D g 3 N F G H S J : > .                                     .   X o O O p l y z , .   .   ",
"o o 9 i u   .     .   u i 9 j + g 3 3 g D 4 r + K L : : .   .                                     .   X o O + 4 P < q f , > .   ",
"O O 4 9 X   . . . .   X 9 4 O r 3 2 2 3 4 9 O j I t > > . . . . . . . . . . . . . . . . . . . . . .   X o O + 4 5 e w q z   . . ",
"+ + + j X   .       t k j O 9 4 3 2 2 3 r O 4 9 X   . . > t > >                         > > > >   .   X 9 4 + r 8 5 2 7 U Y   > ",
"4 4 r + X   . . u X k z + r 4 D g 3 3 g + j 9 i u   . . , , , , X X X X X X X X X X X X , , , , . .   u i 9 j + 8 2 2 < T U z , ",
"3 8 5 h ,     u i 9 j + g 3 3 g D 4 r + z k X u . . > , f g < h + o o o o o o o o o o + h < g f , > . . u X k l < 1 5 5 < < < < ",
"2 2 e < ,     X 9 4 O r 3 2 2 3 4 9 O j k t     . .   z q w e 5 r O C O O O O O O O @ r 5 e w q z   . .     t y 7 2 5 5 1 e 1 1 ",
"2 2 e < y t   k j O 9 4 3 2 2 3 r O 4 9 X   . . >   Y U R 2 5 E O 9 + + O O O O # # + W 8 5 2 7 U Y   > . .   z q w 2 1 5 5 5 5 ",
"3 8 5 P l k u z + r 4 D g 3 3 g + j 9 i u   . . , z U T E Q e 5 ! ~ D ~ p o o p ^ / ( ) _ 2 2 < T U z , . . > , f q 7 < 5 2 5 5 ",
"4 4 ) 4 p o o + g 3 3 g D 4 r + z k X u . . > , f q R E ` ' ] ] ` [ { } | k u  ...X.o.O._ 2 5 5 < 7 q f , > . . , z U T < 1 5 5 ",
"+ + + + O O + r 3 2 2 3 4 9 O j k t     . .   z q Q 2 Q ] +.@.+.+.+.#.$.%.&.> *.=.-.;.:.>.2 5 5 1 2 w q z   . . >   Y U 7 2 5 5 ",
"O O O O O O + r ,.e e 5 r O 4 9 X   . . >   Y U R 2 3 2 ' +.+.+.<.+.1.2.l t 3.L 4.5.-.6.v 7.1 1 5 5 2 7 U Y   > . .   z q w 2 1 ",
"o o o o o o o + h < < h + j 9 i u   . . , z U T E Q 2 Q 8.9.0.0.$.q.w.e.%.t 3.L r.4.=.t.y.u.< < 5 5 1 < T U z , . . > , f q 7 < ",
"X X X X X X X X , , , , X X X u . . > , f q R E ` ] ' 8.i.p.a.s.d.%.f.%..   3.. L L L L , z U T < 1 5 5 < 7 q f , > . . , , , , ",
"                > > > >         . .   z q Q 2 Q ] +.+.9.p.g.h.j.*.k.t t   . l.3.3.3.3.  >   Y U 7 2 5 5 1 2 w q z   . .         ",
". . . . . . . . . . . . . . . . >   Y U R 2 3 2 ] +.+.9.z.x.c.v.: 3.. . .   .           . .   z q w 2 1 5 5 2 7 U Y   >         ",
"                          .   . , z U T E Q 2 Q b.] ' 8.n.m.M.N.L   .     .   . u X X u . . > , f q 7 < 5 5 1 < T U z , X X X X ",
"                          . > , f q R E ` ] ] b.Q 1 w 5 B.^ $ V.X   .     .   u i p p i u   . . , z U T < 1 5 5 < < g h + o o o ",
". . . . . . . . . . . . . .   z q Q 2 Q ] +.+.] e 5 2 E W C.O o X   .     .   X p O O p X   . . >   Y U 7 2 5 5 1 1 e 5 r O O O ",
"> > > t t t t t t > > >     t y 7 2 ,.e ] +.+.] e 5 2 3 r @ 4 n X   .     .   X p O O p k t     . .   z q w 2 1 5 5 2 8 4 + + + ",
", , , , Z.f.f.Z., , , , X X k l < e 5 e ` ] ] ` e 5 2 8 + j 9 i u   .     .   u i p p m , k X u . . > , f q 7 < 5 5 2 3 4 + O + ",
"< < 7 E A.$.$.A.E 7 g h + o o + 8 2 5 2 e e e e 2 5 1 < l k X u .   .     .   . u X k , m p p i u   . . , z U T < 2 2 3 4 + O + ",
"1 e 2 Q S.<.<.S.Q 2 e 5 r O O r 3 2 5 5 5 5 5 5 5 5 1 < y t     . . . . . . . .     t k p O O p X   . . >   Y U 7 2 5 8 4 + + + ",
"5 5 5 e ] +.+.] e 5 2 8 4 + + 4 3 2 5 2 2 2 2 2 2 5 1 < ,   . .                 . .   X p O O p k t     . .   z q w e 5 r O O O ",
"5 2 5 e ` ] ] ` e 5 2 3 4 + + 4 3 2 5 5 5 5 5 5 5 5 1 < , > . . u X X X X X X u . .   u i p p m , k X u . . > , f g < h + o o o ",
"5 2 5 2 e e e e 2 5 2 3 4 + + 4 3 2 5 5 5 5 5 5 5 5 1 < ,     u i 9 o o o o 9 i u   . . u X k , m p p i u   . . , , , , X X X X ",
"5 5 5 5 5 5 5 5 5 5 2 8 4 + + 4 3 2 5 2 2 2 2 2 2 5 1 < ,     X 9 4 O O O O 4 9 X   . .     t k p O O p X   .   > > > >         ",
"1 1 1 1 2 2 2 2 1 1 e 5 r O O r 3 2 5 5 5 5 5 5 5 5 1 < y t   k j + + + + + O o k t     . .   X p O O p X   . . . . . . . . . . ",
"< < < < 8 3 3 8 < < g h + o o + 8 2 5 2 e e e e 2 5 1 < l k u z + r 4 4 O + O p z k X u . .   u i p p i u   .                   ",
", , y l + r r + l y , , X X k l < e 5 e ` ] ] ` e 5 2 8 + o o + g 3 3 g 4 + O + p o 9 i u   . . u X X u .   .                   ",
"    t k o O O o k t         t y 7 2 ,.e ] +.+.] e 5 2 3 r O O r 3 2 2 3 4 + O O O O 4 9 X   .           . . . . . . . . . . . . ",
"      u j + + j u       . .   z q Q 2 Q ] +.+.] e 5 2 E 4 C.C.4 3 2 2 3 4 + O + + + O o X   . . . . . .         > > > >         ",
"X X k z C D.D.C z k X u . . > , f q R E ` ] ] b.Q 1 w 5 D 4 4 D g 3 3 g 4 + O + + + O o X   .     .   . u X X X , , , , X X X X ",
"o p j C A.b.b.A.C F.9 i u   . . , z U T E Q 2 Q b.] ] ` 5 E 3 g D 4 M 4 O + O + + + O o X   .     .   u i 9 j + h < < h + o o o ",
"O O + G.b.<.<.b.G.+ 4 9 X   . . >   Y U R 2 3 2 ] +.+.] H.5 1 3 4 C.+ + + O + + + + O o X   . . . .   X 9 4 O r 5 e e 5 r O O O ",
"+ O C.~ ` +.+.` r 9 O j k t     . .   z q Q 2 Q ] +.+.] e 5 2 8 M + O O O + + O O O 4 9 X   .       t k j O 9 4 3 2 2 3 4 + + + ",
"+ O + ~ $.S.S.2.! O r + z k X u . . > , f q R E ` ] ] ` e 5 2 3 4 + O + + + O + p o 9 i u   . . u X k z + r 4 D g 3 3 g 4 + O + ",
"+ O + M 5 H.e e 3 8 3 g + j 9 i u   . . , z U T E Q e e 2 5 2 3 4 + O + + + O p z k X u . .   u i 9 j + g 3 3 g D 4 M 4 O + O + ",
"+ + + 4 E 5 5 5 2 2 2 3 r O 4 9 X   . . >   Y U R 2 ,.5 5 5 2 8 4 + O + + + O o k t     . .   X 9 4 O r 3 2 2 3 4 9 + + + + + + ",
"O O O r 5 e 1 e 2 2 2 3 4 9 O j k t     . .   z q Q 2 e 2 2 1 3 ) + O O O O 4 9 X   . .     t k j O 9 4 3 2 2 3 r O O O O O O O ",
"o o o + h g < < 8 N 3 g D 4 r + z k X u . . > , f q 7 < 8 N 3 g 4 + O + p o 9 i u   . . u X k z + r 4 D g 3 3 g + o p o o o o o ",
"X X X X , , y l + r 4 D g 3 3 g + j 9 i u   . . , z y l + r 4 4 O + O p z k X u . .   u i 9 j + g 3 3 g D 4 r + z k X X X X X X ",
"        >   t k j O 9 4 3 2 2 3 r O 4 9 X   . . >   t k j + + + + + O o k t     . .   X 9 4 O r 3 2 2 3 4 9 O j k t             ",
"        . .   X 9 4 O r 3 2 2 3 4 9 O j k t     . .   X 9 4 O O O O 4 9 X   . .     t k j O 9 4 3 2 2 3 r O 4 9 X   . .         ",
"X X X u . .   u i 9 j + g 3 3 g D 4 r + z k X u . .   u i 9 o o o o 9 i u   . . u X k z + r 4 D g 3 3 g + j 9 i u   . . u X X X ",
"o o 9 i u   . . u X k z + r 4 D g 3 3 g + j 9 i u   . . u X X X X X X u . .   u i 9 j + g 3 3 g D 4 r + z k X u . .   u i 9 o o ",
"O O 4 9 X   . .     t k j O 9 4 3 2 2 3 r O 4 9 X   . .                 . .   X 9 4 O r 3 2 2 3 4 9 O j k t     . .   X 9 4 O O ",
"+ + O o k t   > . .   X 9 4 O r 3 2 2 3 4 9 O j k t                         t k j O 9 4 3 2 2 3 r O 4 9 X   . . >   t k o O + + ",
"+ + O p l y z , . .   u i 9 j + g 3 3 g D 4 r + z k X X X X X X X X X X X X k z + r 4 D g 3 3 g + j 9 i u   . . , z y l p O + + ",
"+ O + 4 P < q f , > . . u X k z + r 4 D g 3 3 g + o p o o o o o o o o o o p o + g 3 3 g D 4 r + z k X u . . > , f q < P 4 + O + ",
"O O + M 3 1 e g ,   . .     > k o O C.4 3 2 2 3 r O O O O O O O O O O O O O O r 3 2 2 3 4 9 O j k t       . t , q w e 5 ) + O + ",
"+ + C.4 3 1 e g y t         > k o O C.4 3 2 2 3 4 + + + + + + + + + + + + + 9 4 8 2 2 N r O 4 9 X   . . . . > , 7 2 5 8 4 + O + ",
"4 ) 4 D J.< g f l k X X X X k z + r 4 D g 3 3 g 4 + O + + + + + + O + O 4 M 4 D 3 2 2 8 + j 9 i u   .     . > , < 1 2 3 4 + O + ",
"3 8 5 J.T y , l m 9 o o o p o + g 3 3 g D 4 M 4 O + O + + + + + + O + 4 g 3 8 3 5 5 1 < l k X u .   .     . > , < 1 2 3 4 + O + ",
"2 2 e u.U Y t k 9 4 O O O O O r 3 2 2 3 4 C.+ + + O + + + + + + + O + ) 3 1 2 2 2 5 1 < y t       .       . > , < 1 2 3 4 + O + ",
"5 5 1 < z     X o O + + + + + 4 8 2 2 8 M + O O O + + + + + + + + O + 4 8 2 5 5 5 5 1 < ,   . . .         . > , < 1 2 3 4 + O + ",
"5 5 1 < ,     X o O + + + O + 4 3 2 2 3 4 + O + + + + + + + + + + O + 4 3 2 5 5 5 5 1 < , > .             . > , < 1 2 3 4 + O + "
};
