/* XPM */
static char *_45da5ce232c4e65db36be258cf8a477ZjfBh71WEY3r15vm[] = {
/* columns rows colors chars-per-pixel */
"64 64 76 1 ",
"  c #4A3A24",
". c #4C3C25",
"X c #4D3D26",
"o c #4F3F27",
"O c #54432A",
"+ c #57452B",
"@ c #665233",
"# c #675233",
"$ c #685333",
"% c #685334",
"& c #685434",
"* c #695434",
"= c #695534",
"- c #6B5535",
"; c #6D5736",
": c #6E5837",
"> c #6F5B38",
", c #705938",
"< c #705A38",
"1 c #715B38",
"2 c #735C39",
"3 c #725D39",
"4 c #735E3B",
"5 c #745F3A",
"6 c #745F3B",
"7 c #755F3B",
"8 c #75603B",
"9 c #76613B",
"0 c #78623C",
"q c #79633E",
"w c #7C633D",
"e c #79643D",
"r c #7B653E",
"t c #7C653F",
"y c #7E6640",
"u c #80663F",
"i c #9A7F4A",
"p c #9C824B",
"a c #9C824C",
"s c #9E834C",
"d c #9F854D",
"f c #A0844D",
"g c #A1864D",
"h c #A2864E",
"j c #A2874F",
"k c #A3884F",
"l c #A4884F",
"z c #A48850",
"x c #A58850",
"c c #AD8B56",
"v c #AE8C57",
"b c #B18E58",
"n c #B18F58",
"m c #B28F58",
"M c #B38F59",
"N c #B29059",
"B c #B4925A",
"V c #B6935A",
"C c #B7935B",
"Z c #B4925C",
"A c #B5925C",
"S c #B7945D",
"D c #B8945B",
"F c #B8935C",
"G c #B9955C",
"H c #BA965D",
"J c #BB985F",
"K c #BC985F",
"L c #BC9760",
"P c #BC9860",
"I c #BE9960",
"U c #BF9A61",
"Y c #BF9B62",
"T c #C09B61",
"R c #C09B62",
"E c #C19C63",
/* pixels */
"RURUjjjjjslffggjfjsjKRRUURRRDCDCjsslKEKERRRRRREUEUTUURURRURRjfjj",
"RUUKjssjjfgffggsjjfjKRRRHRRRCCDDjjglKRRRRRKRRKKUUTUUUUURRURRjjjf",
"EUEUjjjdjfffksslsdjjRRRRRRRUCCCDjffjREEREERREEREUEEURRRRRRRGjfjs",
"UUUJjjjksjjjdssdjjjzKRKRRHEDCCCMsfflKKKKKKKKRKRUKUKKUUURRDRRjsjj",
"EUUUUUUPCCCN099rNAADDCCClljjglllfssjllljjljlCDCCljjlCCFGKRRKjfjf",
"EUUEUUEUCDDN9330NGDGCCCCjjfffjffjjjjgsfffffjCSGCjjsjCDDGEREKljfj",
"UEUUUUYUSCGN9330mGACDGDCjfjfffffgsgfsjffjsjjCCFAjjgjCCCFRRRKlfjf",
"EUEUUUYUCCAmt99tmDFCCCDAjfjjjflfkljljljljjjkCSFCssssCCAGKRRKjffj",
"RRRRRRRKjjjjssssjjjjjjfzCCCACDAAKKKKRULULUUPFAGm<;;9GRUREURKljjs",
"UUURRKRUjdjssjjdjssffffjCFDGAGGGRREERRUUUYUUGAGm;@@:LRURKTEUkdsj",
"RRRERREUjjjjjffjjdjjjfjjCCAGGGAGEEERERRREUEYGGGN<$%,LREREEEEjdjj",
"LGFKUDKDsssssssssssdssssmmmmCmmAGGKDGLLRGLPGmmCc:$%>ALGLKDKDjsss",
",>,,:<<<:::,990980008888000y50y8te0t0080>>,>;,,,****>>;,9t005050",
"**%*&&&$&***<335444384844343533433344393%&%%%*%%*;**%%%%34435355",
"%%**&&$$&&**4553848843,44334355595544844*%*%%**%*@**%%**34445333",
">;>>:::::::,4095888800y88y08005590008888>;>;*;*;:3,,>>>,088y5000",
"GGUAdasasssssassssssGGLLDGRDssssGKGDsisssasi8338vmMmmmNNNNNGGLGL",
"EEUUjjjjdjjddjjjjjjzURREEEERjjjjREERjjjjjdjs039tmGGGDDGGFGAGURRU",
"EUULjssddjjdssjssffjUUUUKREKjjsjUURKjjsjsdjs8438mGFFCCDCFGCCUURR",
"UUULjsjjsssdjjjjjsjjLUUURREKjjjjUUEGjjjjjjzz085rNAFACCCDFDCCULUR",
"lljjjjjst99ymCCCCGCCADGGURRKlssjCAGGGCCCADCCNNDmxjjjjfjglfjljjjl",
"ffffjsjp8330mDCGCACFGCDAURRKjjsjCCCCAGCCAFDCDDCCjjfsffffffffddsj",
"ffjdfdds4339CACCCCCCCCDFRRRKjfjjGAAGCACCADFFCCCCjjsjjfffffffjjjs",
"ljljjjjsy08tCFCCGCGGAGFGKREKlfsjCCCCCCCCCmFmSCSSjjjjlljljljjjjjj",
"KKKKUULULLLSGADGUUUUUUUUUURRjjjjjjjfjflft90yLRUUPUUUUULUKKKKRKKR",
"RREEEUUUUUYUFFCFUUUUURUUUUULjdsdddsjfffd8430LEUUYYUYUEURRRRRRRRR",
"REEREEUYYEEYGGFFURRRRREEERRRjjjzjdjsjdjj043tLEEUEEUEUEURRRRERRRR",
"GGUGGLLULGPGmmmFGLLGGLLLLGLGsssdssssssdi5355ALGLPGLGPGLLKKGKKKKG",
"t0r00rr8>>,,>>,;,,>,,,,,,>>>980808089999<$%<:,,,>>>,,,>,80t0000t",
"39343434%%%%%%%%**%%%%%*@%**333444833353******%%%%%%%%%%43345553",
"39384434%%%%$%%%&%%%%%%%****484434344333$$&&**%%%*%%%%**44443435",
"00008rr8>,,>>>>;>>>>%;;*::::0000t00t8000<;<,::>;>:>,>>>,8t000005",
"LLDKDDKDGGKDKDKGLGSZ8448ispdGKDJULPGZNSmmmmmmmmNGLGLGGGGKUGGjssa",
"RREREEEEEEEEEEEEUERLt388sjjzUEERUUUUSSDCFFGGGFFGEERREEEEUUEUjjdj",
"UUUUEEREEEEEERRRYUUL8348sddjUURUUUUUCCAGCAGAFFGGUURURREERUUUjjdj",
"UUUKURKKKKKKKKKKUUUUy08ydzdzUURKUUULCCCDCCFFAMmAURUUEGUGRUUGjsdj",
"jjjllljlljjjjjjlzjjxDGUGCCCCCCCCljljjjjjjjjsi40yLUUUxzjjjljzjsjj",
"ddjsfgffljfjffffdddjEEUUAGCCCCDDjsjdddffsjjs%430GRULjdjsfsjfsjdj",
"fjsjffffffffsfjssjdjJEUUSCSCCCCCjdjfjfjjssjs>>30RRUUjjsdffffdjjj",
"jjjjflgjglfjjjjjjjjxPEUUCCCCCCCCffdlfjdfjjjsy45yLUUUkjjjjjjfjsjs",
"GRKRCCCCAAGADDCCUGULUUUUjjjjjsjjjfjjjjsfCCCCmDmmGFGFCCCFCCCmjsjj",
"RRRRDDCCGFGAGADAEEEUUUUUjssjffffjssgdsjjCCCCGGAGCCCGAFFFCCCCjjss",
"RRRRFFFAFGGGGCCGUUEEEEEUjjjklfffjsfjjjjjAFCCDAGAGGGGGFFGDDDCjjjj",
"GLKKmmmDmmANmFmCGUGLGLGSsssddsfdsssgsssjmmmCNANGmmMMMmMmmmCmssss",
"00t9,,:,80000000,,<<>>,>::::8005999005808000y808,,>:>>;,,,,>9090",
"5533%***43444553*%$&%%%%%%@*33533553844834344443%*@&%%%%*%%%3353",
"3433&&**444,4353&%&&**%%%%**43535355348484843844&&**;*;*%*@%5333",
"y8t0<,:,8y8y0000,>,:::;;>3,,80889959888888888888<,:,****:>3,5t00",
"LGLLGGGGUGLLLLLSGGUFfsssAGLFfssssssssspssspgsjsfDDUC0330ALGLLKLL",
"UEYURREEREUEUUEURRURjjjzRREUlfjfjjdjddjjslsjsfflREUL0550RERURUUU",
"UUUURRRURRRUUUUURREGjjszUURUjffsddffdjddddffjsflUYEG5530LRRUUUUU",
"UUUURKRGLLGLUEUURRREjjjjUUUUjfjjjjjjdjjjdkfjgjflPUUGt590FRUUUUUU",
"SGCCkjjs,,>3UEUURRRGGRGRUUUUjdjjDUGUDCCCDCCNjffjzjjjssssjjjjACSC",
"ASCCjdjs:%%:SRUURRRRERERUUULjdjjUREUDDCSDDDCffjfdjjsjjjjfsjjFFCC",
"DCGCjjjs;%%>GUUERRRERRGRUUUUjdjjKRYESDCCSCDCjfjfdjsjssffffjjCSCC",
"SDSCjjjs>;:3GUUUGRRGRRRRUUUUjjsjRREJDCSCCCCCjfjjjjjjjjlljljkCGDS",
"UUUUUUULdsssjjjljjjjURURUUUUjsjjKRRRKRKGjjjjCCCDUUPULUUUKKRKUUUU",
"UUUUUUULjjdjsdsjjssjGRRRUUUUjjsjKRRRRREEjdsjCDAGUYUUUUUUERRRUUUU",
"YEYEUUUUjdjjsjjjjjjlRRRURRUUjjjjREEERRRRzjjzCDFAUEUUREUREEERRRRR",
"GLLGLLLLssssssssassdGLGULLUDsssdDGGULGKDsssdmmmFGSLGGLLLGGGRLDRG",
"r80y0i;47475wi,4,>::,,,3yuuu,<;,0000000t80000004+OO+,>,>,>>,9r00",
"3434,5,>4545www7**&@%$&$0ttw**$$4455343543434343X . $**%%&**3534",
"484448484055,iww***;**;%wwww;%>*448448444884844>XXXX%*;*%%*,3444",
"84848484445,2yww;*****$;wtww%%%*344484844948444>+XXX**%%;***4844"
};
